<?xml version="1.0" encoding="utf-8"?>
<svg version="1.2" baseProfile="tiny" id="Layer_1" xmlns="http://www.w3.org/2000/svg" xmlns:xlink="http://www.w3.org/1999/xlink"
	 x="0px" y="0px" width="206.3px" height="232.5px" viewBox="0 0 206.3 232.5" overflow="visible" xml:space="preserve">
<g>
	<path fill="#2F7ADB" d="M58.1,138.9c-1.8-17.3-33.6-12.6-31.6-21.8c1.7-7.9,34.6,2,44.7,0.9c1.5-0.2,2.8-0.5,4-0.8
		c5.3-1.5,9.6-5.5,11.5-10.9c0.3-0.8,0.5-1.6,0.7-2.5c0.1-0.3,0.1-0.6,0.1-0.9c0.2-1.3,0.2-2.5,0.1-3.7c-0.2,2.3-1,4.4-2.2,6.2
		c-2.5,3.9-6.9,6.4-11.9,6.4c-7.8,0-14.1-6.3-14.1-14.1c0-0.7,0.1-1.3,0.2-2c0.9-6.8,6.7-12,13.8-12.2C64.9,82,56.8,87.1,54.1,95
		C39.7,94.1,21.8,96.9,0,107.2l19,82.2C39.7,168.1,59,148,58.1,138.9L58.1,138.9L58.1,138.9z M105,120.1c1.2-8.4,3.5-16.8,5.3-25.2
		c2.1-9.7,9-33.6-0.8-33.1c6.2,0-0.7,23.6-4.2,32.8c-2.6,6.9-5.6,13.8-7.9,20.8c-1.9,5.7-3.3,11.5-3.8,17.4c0,0.4,0,0.8,0,1.1
		c-0.5,17.1,11.8,52,6.8,55.4c-8.8,5.9-9.8-10.8-12.5-17s-5.8-15.4-12.6-15.1c-5.7,0.2-10.2,4.9-13.8,9.4
		c-5.4,6.7-10.8,13.7-16.9,19.8c16-3,37.8-2,58.5,15.6c39.5-33.6,82.8-6.9,82.8-6.9l20.3-88C142.8,77.2,112.5,110,105,120.1
		L105,120.1L105,120.1z M125.4,120.9c0-7.8,6.3-14.1,14.1-14.1c1.3,0,2.6,0.2,3.9,0.6c5.9,1.7,10.3,7.1,10.3,13.6
		c0,4.5-2.1,8.5-5.4,11.1c-2.4,1.9-5.4,3-8.7,3c5.9,1.7,11.9-0.6,15.3-5.2c15.1-6.6,16-19,21-19c6.3,0,4.7,10.7-4.5,21.4
		c-4.2,4.8-8.4,10.1-7.7,16.4c0.6,5.4,8.2,10.1,14.6,23.9c1.7,3.7,1.8,9.6-2.3,10.3c-1.8,0.3-3.6-0.5-4.9-1.7
		c-10-8.8-15-16.7-23.7-15.2c-16.1,2.8-17.8,18.8-26.6,17.5c-7.6-1.2,8.5-21.7,10.6-30.9c1.5-6.7-8.7-3.6-16.8,0.8
		c-7.7,4.1-8.8-3.4-5.3-7.4c4.7-5.3,12.6-9.7,25.4-11.8C129.2,132.1,125.4,127,125.4,120.9L125.4,120.9L125.4,120.9z"/>
	<path fill="#50D3F2" d="M103.1,214.3c-40.2-34-86.1-4.2-86.1-4.2L6.8,173.5l6.6,57.6c54.2-36.4,89.7,1.4,89.7,1.4
		s35.5-37.8,89.7-1.4l6.6-57.6L189.2,210C189.2,210,143.4,180.3,103.1,214.3L103.1,214.3L103.1,214.3z"/>
	<path fill="#FFDC00" d="M91,44.4L81.2,72l22.6-18.9c2.7-2.2,6.6-2.4,9.5-0.4L132.4,66l-8.7-22.4c-1.2-3.1-0.3-6.7,2.3-8.8
		l13.1-10.9l-18.3-0.8c-3.1-0.1-5.8-2.1-7-5l-7-18.1l-5.9,16.7c-1.1,3.2-4.3,5.3-7.7,5.2l-26-1.1l20.9,14.5C91,37.3,92.2,41,91,44.4
		L91,44.4L91,44.4z"/>
</g>
</svg>
