<?xml version="1.0" encoding="UTF-8"?><svg xmlns="http://www.w3.org/2000/svg" width="512" height="512" baseProfile="tiny" version="1.2" viewBox="0 0 256 256"><path fill="#427ad4" d="M129.32 118.88c5.12-6.25 11.51-11.22 19.12-14.09 16.79-6.32 34.99-2.05 50.66 5.33l-13.67 61.28c-18.1-10.29-41.67-9.49-57.43 4.75-11.16-9.6-25.83-13.63-40.41-10.99 1.29-1.52 2.76-2.93 4.07-4.44 3.42-3.97 8.68-11.95 12.95-14.39 10.51-6 12.89 11.79 15.35 18 .78 1.97 2.06 4.48 4.57 3.84 3.08-.79 2.38-4.27 2.12-6.69-1.02-9.49-4.71-19.28-5.26-28.8-.86-14.99 8.46-28.43 11.6-42.86.72-3.31 2.01-7.99.16-10.99.24-.22 1.13.51 1.33.71 2.53 2.44.89 10.69.28 13.96-1.59 8.49-4.29 16.79-5.44 25.38Z"/><path fill="#427bd4" d="M103.42 93.94c.81-.16 1.28-.08 1.44.24-3.52 1.07-6.62 4.07-7.13 7.86-1.67 12.19 15.44 16.18 19.12 4.13.23-.11.31.13.24.72-1.2 8.35-7.58 11.43-15.47 10.79-5.84-.47-20.87-4.25-25.55-2.04-2.1.99-1.69 3.09.08 4.25 4.75 3.11 12.87 2.32 17.79 6.91 5.9 5.51.72 12.21-3 17.13-6.34 8.38-14.22 15.63-21.21 23.39L56.44 110.4c.07-.27.32-.33.52-.45 1.95-1.13 5.58-2.43 7.79-3.24 9.37-3.46 19.13-5.5 29.17-4.84 1.3-3.96 5.23-7.69 9.5-7.93Z"/><path fill="#75d1ee" d="M61.69 158.21c1.95 7.88 4.52 15.62 6.48 23.5 18.38-11.12 43-12 59.62 2.86 5.48-4.3 11.52-7.89 18.31-9.7 13.97-3.71 29.28-.48 41.48 6.83 2.19-7.74 4.41-15.48 6.48-23.26.4-.19.34.36.24.72l-4.08 36.93c-.25.27-4.48-2.56-5.11-2.92-13.6-7.7-28.63-10.61-43.56-4.63-4.96 1.99-9.71 5.01-13.55 8.7-5.06-4.54-11.13-8.17-17.69-10.09-13.77-4.04-26.95-.94-39.2 5.78-.7.38-5.3 3.46-5.59 3.16-1.07-12.48-2.91-24.92-4.08-37.41-.01-.31.07-.47.24-.48Z"/><path fill="#fedc15" d="m152.58 52.45-9.36 8.03c-1.35 1.46-1.82 3.54-1.12 5.45l5.92 15.54-13.11-9.07c-2.34-1.33-4.33-1.19-6.53.34-4.69 3.25-9.17 8.14-13.82 11.6-.34.25-1.44 1.23-1.79.96l6.85-18.93c.41-2.2.02-3.85-1.45-5.52L103.18 50.3c2.51.22 5.05.12 7.56.23s5.2.45 7.65.5c3.78.07 6.03.29 7.85-3.45l4.27-11.67c1.72 3.94 2.91 8.55 4.76 12.39 1.32 2.75 2.92 3.44 5.92 3.67 1.47.11 11.05.03 11.39.49Z"/><path fill="#5f8fda" d="m103.42 93.94 2.88-.24c-.11.47-1.07.36-1.44.48-.25-.38-1-.26-1.44-.24Z"/><path fill="#9fbbe9" d="m117.09 106.89-.24-.72c.12-.39.02-1.24.48-1.2.23.72-.16 1.41-.24 1.92Z"/><path fill="#bae8f6" d="m61.69 158.21-.24.48-.24-1.92c.37.11.38 1.05.48 1.44Z"/><path fill="#9fdff3" d="m194.31 159.17-.24-.72c.1-.39.22-.79.24-1.2h.23c-.07.6.24 1.5-.24 1.92Z"/><path fill="#fefefe" d="M153.78 129.91h3.96c2.45 0 4.51-2.79 6.13-3.94 3.14-2.22 5.33-2.75 8.13-6.02 1.33-1.55 4.17-6.78 5.9-7.05 5.63-.89 1.99 7.85.63 10.22-2.93 5.11-11.26 11.4-8 17.99 2.39 4.83 9.49 11.04 10.12 16.74.6 5.37-2.68 6.35-6.48 3.12-6.75-5.73-10.78-13.91-21.08-7.9-3.8 2.22-8.13 9.31-11.04 10.06-4.76 1.23-3.2-3.19-2.13-5.73 1.83-4.36 6.91-11.47 7.58-15.68s-5.23-2.25-7.44-1.44-7.79 4.76-9.07 1.52c-1.85-4.7 6.88-9.47 10.44-10.69l8.04-2.28c-8.2-3.27-8.04-15.32.41-18.29 12.25-4.31 19.81 15 4.74 18.89-.33.09-.75 0-.84.48Z"/></svg>